<?xml version="1.0" standalone="no"?>
<!DOCTYPE svg PUBLIC "-//W3C//DTD SVG 20010904//EN"
 "http://www.w3.org/TR/2001/REC-SVG-20010904/DTD/svg10.dtd">
<svg version="1.0" xmlns="http://www.w3.org/2000/svg"
 width="500.000000pt" height="500.000000pt" viewBox="0 0 500.000000 500.000000"
 preserveAspectRatio="xMidYMid meet">
<metadata>
Created by potrace 1.11, written by Peter Selinger 2001-2013
</metadata>
<g transform="translate(0.000000,500.000000) scale(0.100000,-0.100000)"
fill="#000000" stroke="none">
<path d="M328 4703 c-14 -9 -31 -27 -37 -40 -16 -34 -15 -4292 0 -4326 6 -13
23 -31 39 -40 26 -16 190 -17 2170 -17 1980 0 2144 1 2170 17 16 9 33 27 39
40 16 34 16 4292 0 4326 -6 13 -23 31 -39 40 -26 16 -189 17 -2172 17 -1978
-1 -2145 -2 -2170 -17z"/>
</g>
</svg>
